<svg xmlns="http://www.w3.org/2000/svg" viewBox="0 0 512 512" id="bathroom"><path fill="#fa8aa2" d="M234.56 72.788v73.939c0 8.847-7.172 16.019-16.019 16.019h-25.866c-8.847 0-16.019-7.172-16.019-16.019V72.788c0-8.847 7.172-16.019 16.019-16.019h25.866c8.848.001 16.019 7.173 16.019 16.019z"></path><path d="M209.591 162.76h-16.906c-8.82 0-16.065-7.14-16.065-16.065v-73.92c0-8.82 7.245-15.96 16.065-15.96h16.906c-8.82 0-15.96 7.14-15.96 15.96v73.92c-.001 8.925 7.139 16.065 15.96 16.065z" opacity=".1"></path><path fill="#405d6b" d="M508 297.369c0 9.686-7.853 17.54-17.54 17.54H21.54c-9.686 0-17.54-7.853-17.54-17.54 0-9.686 7.853-17.54 17.54-17.54h468.92c9.687.001 17.54 7.853 17.54 17.54z"></path><path d="M508 297.369c0 3.255-.841 6.194-2.52 8.82-2.835-5.25-8.505-8.82-15.015-8.82H21.536c-6.51 0-12.179 3.57-15.015 8.82-1.679-2.625-2.52-5.565-2.52-8.82 0-9.661 7.875-17.535 17.535-17.535h468.929c9.659 0 17.535 7.875 17.535 17.535z" opacity=".1"></path><path fill="#405d6b" d="M399.447 475.974H112.553v6.817c0 11.597 9.402 21 21 21h244.896c11.597 0 21-9.402 21-21v-6.817h-.002z"></path><path fill="#fefefe" d="M486.397 314.909a104.122 104.122 0 0 0-26.729 69.655v29.264c0 34.322-27.824 62.147-62.147 62.147H114.479c-34.322 0-62.147-27.824-62.147-62.147v-29.264c0-25.722-9.522-50.535-26.728-69.655h460.793z"></path><path d="M457.603 383.769c-6.991 26.616-31.19 46.32-60.063 46.32H114.461c-28.873 0-53.072-19.704-60.063-46.32h-2.132c.002.251.034.499.034.75v29.294c0 34.335 27.825 62.161 62.161 62.161H397.54c34.335 0 62.161-27.825 62.161-62.161v-29.294c0-.252.032-.499.035-.75h-2.133z" opacity=".1"></path><path fill="#37d0f9" d="M400.735 157.631a5.665 5.665 0 0 1-7.553 2.676l-66.81-31.853a5.665 5.665 0 0 1-2.676-7.553c10.142-21.274 35.611-30.298 56.886-20.154 21.272 10.142 30.296 35.61 20.153 56.884z"></path><path d="M399.745 119.08c-.629-.419-1.26-.734-1.889-1.05-5.985-2.835-12.285-4.2-18.375-4.2-15.225 0-29.82 8.085-37.38 22.156l-15.75-7.56c-2.835-1.365-3.99-4.725-2.625-7.56 7.245-15.33 22.574-24.254 38.535-24.254 6.195 0 12.39 1.26 18.27 4.095 8.503 4.093 15.119 10.603 19.214 18.373z" opacity=".1"></path><path fill="#facb00" d="M180.093 279.805v122.696c0 9.328-7.561 16.888-16.889 16.888H97.948c-9.328 0-16.888-7.561-16.888-16.888V279.805h99.033z"></path><path d="M81.071 279.834h99.015v28.875H81.071z" opacity=".1"></path><path fill="#72b505" d="M143.762 85.962v64.944c0 6.539-5.302 11.841-11.841 11.841H68.95c-6.539 0-11.841-5.302-11.841-11.841V85.962c0-16.151 13.093-29.245 29.245-29.245h28.164c16.152 0 29.244 13.092 29.244 29.245z"></path><path d="M143.755 86.005v64.89c0 6.51-5.25 11.865-11.865 11.865h-23.625c6.51 0 11.865-5.355 11.865-11.865v-64.89c0-16.171-13.125-29.295-29.294-29.295h23.731c16.063-.001 29.188 13.125 29.188 29.295z" opacity=".1"></path><path fill="#405d6b" d="M217.628 39.97v16.799h-24.037V39.97a6.527 6.527 0 0 1 6.527-6.527H211.1a6.526 6.526 0 0 1 6.528 6.527z"></path><path d="M508 499.79H396.727c4.157-4.467 6.722-10.432 6.722-17v-3.116c33.703-3.011 60.218-31.373 60.218-65.847v-29.263c0-24.199 8.765-47.422 24.618-65.656h2.175c11.874 0 21.539-9.662 21.539-21.539s-9.664-21.539-21.539-21.539h-37.996V113.094c0-21.369-17.386-38.753-38.753-38.753-14.637 0-27.989 8.375-34.606 21.464-22.54-8.772-48.447 1.199-59.02 23.374-2.301 4.816-.26 10.584 4.562 12.887l66.812 31.852c4.839 2.313 10.595.238 12.883-4.562 10.456-21.924 2.316-47.862-18.055-60.075 5.241-10.311 15.826-16.938 27.421-16.938 16.957 0 30.754 13.797 30.754 30.754v162.736c-424.692-.03-368.473 0-422.925 0C9.662 275.831 0 285.493 0 297.37c0 11.877 9.662 21.539 21.539 21.539h2.177c15.853 18.233 24.615 41.454 24.615 65.656v29.263c0 34.472 26.518 62.835 60.22 65.847v3.116c0 6.568 2.565 12.534 6.722 17H4a4 4 0 0 0 0 8h503.998c2.211 0 4-1.791 4-4A3.999 3.999 0 0 0 508 499.79zM397.124 155.908c0 .002-.004.004-.004.004a1.655 1.655 0 0 1-2.215.784l-66.816-31.853a1.666 1.666 0 0 1-.785-2.22c9.745-20.435 34.788-27.473 52.187-17.923 18.886 9.426 26.716 32.158 17.633 51.208zM490.46 283.83c7.465 0 13.539 6.075 13.539 13.539 0 7.465-6.075 13.539-13.539 13.539H184.094V283.83H490.46zm-314.366-.025v118.697c0 7.107-5.781 12.889-12.889 12.889H97.948c-7.107 0-12.889-5.781-12.889-12.889V283.805h91.035zM21.54 310.908c-7.465 0-13.539-6.075-13.539-13.539 0-7.465 6.075-13.539 13.539-13.539h55.519v27.078H21.54zm92.939 161.066c-32.062 0-58.147-26.083-58.147-58.147v-29.263c0-23.851-7.832-46.853-22.213-65.656h42.94v83.593c0 11.518 9.371 20.888 20.888 20.888h65.257c11.518 0 20.888-9.371 20.888-20.888v-83.593h293.789a107.93 107.93 0 0 0-22.215 65.656v29.263c0 32.062-26.082 58.147-58.145 58.147H114.479zm280.969 10.816c0 9.373-7.625 17-17 17H133.553c-9.373 0-17-7.627-17-17v-2.816H395.45v2.816h-.002z"></path><path d="M333.657 145.725a3.994 3.994 0 0 0-5.332 1.891l-2.699 5.662a3.999 3.999 0 1 0 7.218 3.441l2.699-5.662a4 4 0 0 0-1.886-5.332zm-16.763 35.156a4 4 0 0 0 5.332-1.891l2.699-5.662a3.999 3.999 0 1 0-7.218-3.441l-2.699 5.662a3.998 3.998 0 0 0 1.886 5.332zm-10.621 22.268a4 4 0 0 0 5.332-1.886l2.703-5.662a3.996 3.996 0 0 0-1.886-5.332 3.994 3.994 0 0 0-5.332 1.886l-2.703 5.662a3.996 3.996 0 0 0 1.886 5.332zm-10.616 22.273a4 4 0 0 0 5.332-1.891l2.699-5.662a3.999 3.999 0 0 0-1.886-5.332 3.992 3.992 0 0 0-5.332 1.891l-2.699 5.662a3.996 3.996 0 0 0 1.886 5.332zm53.452-58.664a3.992 3.992 0 0 0-5.332 1.891l-2.699 5.662a3.999 3.999 0 1 0 7.218 3.441l2.699-5.662a3.998 3.998 0 0 0-1.886-5.332zm-10.617 22.273a3.996 3.996 0 0 0-5.332 1.886l-2.703 5.662a3.996 3.996 0 0 0 1.886 5.332 4 4 0 0 0 5.332-1.886l2.703-5.662a3.995 3.995 0 0 0-1.886-5.332zm-10.621 22.27a3.995 3.995 0 0 0-5.332 1.891l-2.699 5.662a3.999 3.999 0 1 0 7.218 3.441l2.699-5.662a3.997 3.997 0 0 0-1.886-5.332zm41.164-32.895a4 4 0 0 0 5.332-1.891l2.699-5.662a3.999 3.999 0 1 0-7.218-3.441l-2.699 5.662a3.997 3.997 0 0 0 1.886 5.332zm-4.477 9.387a3.992 3.992 0 0 0-5.332 1.891l-2.699 5.662a3.999 3.999 0 1 0 7.218 3.441l2.699-5.662a3.997 3.997 0 0 0-1.886-5.332zm-10.617 22.27a3.993 3.993 0 0 0-5.332 1.891l-2.699 5.662a3.999 3.999 0 1 0 7.218 3.441l2.699-5.662a3.998 3.998 0 0 0-1.886-5.332zm-10.617 22.271a3.999 3.999 0 0 0-5.332 1.891l-2.699 5.662a3.999 3.999 0 1 0 7.218 3.441l2.699-5.662a3.998 3.998 0 0 0-1.886-5.332zM26.221 166.746h239.227c2.211 0 4-1.791 4-4s-1.789-4-4-4h-31.001c2.544-3.357 4.112-7.492 4.112-12.02V72.787c0-9.981-7.365-18.208-16.934-19.706V39.97c0-5.805-4.723-10.527-10.527-10.527h-10.981c-5.805 0-10.527 4.723-10.527 10.527v13.113c-9.568 1.497-16.934 9.724-16.934 19.706v73.939c0 4.528 1.568 8.661 4.112 12.02H145.6c1.337-2.322 2.16-4.976 2.16-7.842V85.962c0-16.974-12.797-30.994-29.244-32.979V38.858c0-5.202-4.23-9.432-9.432-9.432h-4.651V12.21h15.722l12.8 7.342a4.004 4.004 0 0 0 5.461-1.481 4.004 4.004 0 0 0-1.481-5.461L123.21 4.739a4.018 4.018 0 0 0-1.991-.529H89.33a4 4 0 0 0 0 8h7.102v17.217H91.6a9.43 9.43 0 0 0-9.432 9.529l.143 14.032C65.887 54.99 53.11 69.001 53.11 85.962v64.944c0 2.866.823 5.52 2.16 7.842H26.221a3.998 3.998 0 1 0 0 7.998zM197.592 39.97a2.53 2.53 0 0 1 2.528-2.528h10.981a2.53 2.53 0 0 1 2.528 2.528v12.8h-16.036v-12.8zm-16.933 32.817c0-6.626 5.39-12.018 12.018-12.018h25.865c6.626 0 12.02 5.39 12.02 12.018v73.939c0 6.626-5.392 12.02-12.02 12.02h-25.865c-6.626 0-12.018-5.392-12.018-12.02V72.787zM91.604 37.426h17.482c.789 0 1.431.642 1.431 1.431v13.86H90.313l-.14-13.844a1.432 1.432 0 0 1 1.431-1.447zM61.11 85.962c0-13.92 11.324-25.244 25.244-25.244h28.164c13.92 0 25.244 11.324 25.244 25.244v64.944c0 4.324-3.518 7.842-7.84 7.842H68.949c-4.322 0-7.84-3.518-7.84-7.842V85.962h.001z"></path><path d="M205.609 139.467a4 4 0 0 0 4-4v-51.42a4 4 0 0 0-8 0v51.42a4.001 4.001 0 0 0 4 4z"></path></svg>