<svg xmlns="http://www.w3.org/2000/svg" data-name="Layer 1" viewBox="0 0 130 130" id="birthday"><path fill="#e21921" d="M9.32,63.42l110.77,1.46.84,48.72s4.17,15.49-9.83,14-91.27.11-91.27.11-9,4.6-10.68-8.59S9.32,63.42,9.32,63.42Z"></path><rect width="92.97" height="46.89" x="17.85" y="73.45" fill="#ff223d" rx="1.78"></rect><polygon fill="#ffc880" points="108.05 91.63 104.98 86.02 101.91 91.63 96.3 94.7 101.91 97.77 104.98 103.39 108.05 97.77 113.67 94.7 108.05 91.63"></polygon><polygon fill="#ffc880" points="80.13 91.63 77.06 86.02 73.99 91.63 68.38 94.7 73.99 97.77 77.06 103.39 80.13 97.77 85.75 94.7 80.13 91.63"></polygon><polygon fill="#ffc880" points="53.05 91.63 49.98 86.02 46.91 91.63 41.3 94.7 46.91 97.77 49.98 103.39 53.05 97.77 58.67 94.7 53.05 91.63"></polygon><polygon fill="#ffc880" points="25.98 91.63 22.91 86.02 19.84 91.63 14.22 94.7 19.84 97.77 22.91 103.39 25.98 97.77 31.59 94.7 25.98 91.63"></polygon><polygon fill="#ffc880" points="95.99 109 92.92 103.39 89.85 109 84.24 112.07 89.85 115.14 92.92 120.75 95.99 115.14 101.61 112.07 95.99 109"></polygon><polygon fill="#ffc880" points="120.48 103.58 117.52 109 111.91 112.07 117.52 115.14 120.48 120.56 120.48 103.58"></polygon><polygon fill="#ffc880" points="9.55 103.58 12.51 109 18.13 112.07 12.51 115.14 9.55 120.56 9.55 103.58"></polygon><polygon fill="#ffc880" points="68.07 109 65 103.39 61.93 109 56.32 112.07 61.93 115.14 65 120.75 68.07 115.14 73.68 112.07 68.07 109"></polygon><polygon fill="#ffc880" points="40.99 109 37.92 103.39 34.85 109 29.24 112.07 34.85 115.14 37.92 120.75 40.99 115.14 46.6 112.07 40.99 109"></polygon><polygon fill="#ffc880" points="95.99 73.92 92.92 68.31 89.85 73.92 84.24 77 89.85 80.07 92.92 85.68 95.99 80.07 101.61 77 95.99 73.92"></polygon><polygon fill="#ffc880" points="120.48 68.5 117.52 73.92 111.91 77 117.52 80.07 120.48 85.49 120.48 68.5"></polygon><polygon fill="#ffc880" points="9.55 68.5 12.51 73.92 18.13 77 12.51 80.07 9.55 85.49 9.55 68.5"></polygon><polygon fill="#ffc880" points="68.07 73.92 65 68.31 61.93 73.92 56.32 77 61.93 80.07 65 85.68 68.07 80.07 73.68 77 68.07 73.92"></polygon><polygon fill="#ffc880" points="40.99 73.92 37.92 68.31 34.85 73.92 29.24 77 34.85 80.07 37.92 85.68 40.99 80.07 46.6 77 40.99 73.92"></polygon><path fill="#01a539" d="M4.22,46.07V43.14l5.2,1.47H122.1l3.81-1.47V56.82s3.15,6.6-5.82,8.06H7.51a8.15,8.15,0,0,1-3.29-6.44C4,53.87,4.22,46.07,4.22,46.07Z"></path><path fill="#01a539" d="M125.64,39.38,121.41,28.8a3.85,3.85,0,0,0-3.55-2.4h-13l-21.19,9L94,43.31,25.3,26.4h-13a3.85,3.85,0,0,0-3.54,2.4L4.5,39.38a3.55,3.55,0,0,0-.22.77h0a3.23,3.23,0,0,0,0,1.16v0A3.79,3.79,0,0,0,8,44.61H122.1a3.82,3.82,0,0,0,3.81-3.82A4,4,0,0,0,125.64,39.38Z"></path><path d="M53.06 46.07H74.83a1.47 1.47 0 1 0 0-2.93H53.06a1.47 1.47 0 1 0 0 2.93zM75.41 63.42H52.48a1.47 1.47 0 0 0 0 2.93H75.41a1.47 1.47 0 0 0 0-2.93z"></path><path d="M106.61,14.41a1.37,1.37,0,0,0-.14-.46c-.31-2-1.84-4.22-6.6-5.57C87.52,4.87,76.73,14.76,71,21.6a9.17,9.17,0,0,0-3-.52H62.16a9.17,9.17,0,0,0-3,.52C53.41,14.75,42.63,4.86,30.26,8.38,25.51,9.73,24,12,23.67,13.93a1.6,1.6,0,0,0-.16.48c-.06.53-1.61,13,1.36,23.41A5.35,5.35,0,0,0,28,41.27,46.06,46.06,0,0,0,39.27,44l-8,5.94A1.45,1.45,0,0,0,30.71,51l-.87,31.11a1.46,1.46,0,0,0,.9,1.39,1.42,1.42,0,0,0,.57.12,1.46,1.46,0,0,0,1.05-.45l9.28-9.57,9.51,9.58a1.46,1.46,0,0,0,2.5-1L54.5,49.6l9.44-2.88,9.45,2.88.84,32.61a1.46,1.46,0,0,0,2.51,1l9.51-9.58,9.28,9.57a1.44,1.44,0,0,0,1.62.33A1.44,1.44,0,0,0,98,82.13L97.18,51a1.45,1.45,0,0,0-.59-1.13l-7.7-5.74a47.68,47.68,0,0,0,13.25-2.88,5.34,5.34,0,0,0,3.12-3.45C108.23,27.45,106.68,14.94,106.61,14.41Z" opacity=".25"></path><polygon fill="#f2c474" points="96.57 74.4 95.72 44.61 83.64 35.42 63.08 37.19 74.83 46.07 76.3 74.4 86.31 64.88 96.57 74.4"></polygon><polygon fill="#f2c474" points="30.81 74.4 31.66 44.61 43.74 35.42 64.3 37.19 52.55 46.07 51.08 74.4 41.07 64.88 30.81 74.4"></polygon><polygon fill="#ddaf6c" points="95.36 44.33 72.53 44.33 74.83 46.07 76.3 74.4 86.31 64.88 96.57 74.4 95.72 44.61 95.36 44.33"></polygon><polygon fill="#ddaf6c" points="32.02 44.33 31.66 44.61 30.81 74.4 41.07 64.88 51.08 74.4 52.55 46.07 54.85 44.33 32.02 44.33"></polygon><rect width="21.53" height="21.51" x="53.91" y="16.29" fill="#f2c474" rx="5.72"></rect><path fill="#ddaf6c" d="M75.44,22V32.08a5.72,5.72,0,0,1-5.72,5.72H59.63a5.72,5.72,0,0,1-5.72-5.72v-.31a3.82,3.82,0,0,0,.68.05h10.1a5.72,5.72,0,0,0,5.72-5.72V16.33A5.7,5.7,0,0,1,75.44,22Z"></path><path fill="#f2c474" d="M105 10.71S91 24.31 75.14 26.4l-.91 9.78a31.88 31.88 0 0 0 11.91 0c7.08-1.21 14-2.42 14-2.42l3.76-2.1S107.09 13.88 105 10.71zM55.1 26.4S33.54 20 29.84 15.68s-3.62-5.37-3.62-5.37-3.23.9-2.62 7.06S26 32.26 27.68 33s17 5 28.22 3.7c0 0-2.4-8 0-10.5"></path><path fill="#c49a62" d="M71.22 17.37S80.52 6 88.24 3.18c5.06-1.86 14.77-1.36 15.67 2s3.63 7.43-5.87 12.23a227.93 227.93 0 0 1-21.17 9S75.14 17.37 71.22 17.37zM57.89 15.93S47.16 2 34.91 2.58s-8.69 7.73-8.69 7.73A41.84 41.84 0 0 0 53.91 26.4S54.64 18.91 57.89 15.93z"></path><path fill="#ddaf6c" d="M104 12.8c0-.09 0-.17-.07-.25-.91-3.31-10.62-3.82-15.68-2C83.59 12.3 78.36 17.11 75 20.64c-.9-1.77-2.13-3.27-3.73-3.27 0 0 9.3-11.35 17-14.19 5.06-1.86 14.77-1.36 15.68 2C104.52 7.35 105.92 9.91 104 12.8zM57.88 15.93a11.11 11.11 0 0 0-2.61 4.44C51.35 16.31 43.5 9.55 34.91 10c-3.75.18-6 1-7.36 2-.88-1-1.33-1.7-1.33-1.7s-3.56-7.1 8.69-7.73S57.88 15.93 57.88 15.93z"></path><path d="M127.16,39.39c0-.19-.09-.37-.16-.56l-4.24-10.58a5.25,5.25,0,0,0-4.9-3.32H106.53a73.4,73.4,0,0,0,.08-17.16,1.5,1.5,0,0,0-.14-.47c-.31-2-1.84-4.22-6.6-5.57C87.52-1.77,76.73,8.11,71,15a9.17,9.17,0,0,0-3-.52H62.16a9.17,9.17,0,0,0-3,.52C53.41,8.11,42.63-1.78,30.26,1.73,25.51,3.08,24,5.32,23.67,7.29a1.51,1.51,0,0,0-.16.48,74.32,74.32,0,0,0,.09,17.16H12.26a5.27,5.27,0,0,0-4.9,3.32L3.13,38.85a6.56,6.56,0,0,0-.28,1v0s0,0,0,.07h0a4.51,4.51,0,0,0,0,1.42L2.62,59.65a6.7,6.7,0,0,0,4.89,6.44v55.56A7.35,7.35,0,0,0,14.85,129h100.2a7.36,7.36,0,0,0,7.35-7.35V66.12a6.72,6.72,0,0,0,5-6.47V40.15A1.41,1.41,0,0,0,127.16,39.39Zm-24.72-9a2.36,2.36,0,0,1-1.38,1.54c-3,1.21-11.26,3.77-24.77,2.72a9.06,9.06,0,0,0,.88-3.89V27.19c10.25-2,21.94-7.64,26.92-13.55A56.91,56.91,0,0,1,102.44,30.36ZM94.27,45.17,95,71.8l-7.7-7.94a1.45,1.45,0,0,0-1-.44h0a1.44,1.44,0,0,0-1,.43l-8.15,8.22L76.3,44.56a1.48,1.48,0,0,0-.74-1.23l-6.17-3.52a9.12,9.12,0,0,0,4.91-2.43c2.94.29,5.67.42,8.17.42.64,0,1.26,0,1.87,0Zm4.8-40.62c2.13.61,4.64,1.74,4.53,3.74-.27,4.85-12.89,13.13-26.43,15.91v-.57a9.16,9.16,0,0,0-3.56-7.24C79,10.13,88.55,1.56,99.07,4.55ZM59.14,18.15a1.66,1.66,0,0,0,.4-.2,6.2,6.2,0,0,1,2.62-.58H68a6.16,6.16,0,0,1,2.61.58,2.22,2.22,0,0,0,.41.2,6.26,6.26,0,0,1,3.24,5.48v7.1a6.24,6.24,0,0,1-1.45,4,1.35,1.35,0,0,0-.25.28A6.27,6.27,0,0,1,68,37H62.16a6.26,6.26,0,0,1-4.52-1.94,1.52,1.52,0,0,0-.32-.35,6.24,6.24,0,0,1-1.42-4v-7.1A6.26,6.26,0,0,1,59.14,18.15Zm-25.52,27,10-7.48c1.27.07,2.6.11,4,.11,2.49,0,5.22-.13,8.16-.42a9,9,0,0,0,3.34,2l-6.84,3.91a1.44,1.44,0,0,0-.74,1.23l-.77,27.51-8.15-8.22a1.46,1.46,0,0,0-1-.43h0a1.45,1.45,0,0,0-1,.44l-7.7,7.94ZM31.06,4.55c10.54-3,20.12,5.58,25.46,11.84A9.16,9.16,0,0,0,53,23.63v.57C39.43,21.41,26.8,13.14,26.53,8.28,26.42,6.29,28.93,5.16,31.06,4.55Zm-5,9.08C31,19.54,42.71,25.18,53,27.19v3.54a9.2,9.2,0,0,0,.87,3.89c-13.51,1.05-21.75-1.51-24.77-2.72a2.34,2.34,0,0,1-1.38-1.54A57,57,0,0,1,26,13.63ZM5.75,40.3a2.93,2.93,0,0,1,.11-.38l4.22-10.58a2.39,2.39,0,0,1,2.18-1.48H24.08c.22,1.12.48,2.23.79,3.31A5.3,5.3,0,0,0,28,34.62,45.59,45.59,0,0,0,39.27,37.3l-7.83,5.84H8a2.33,2.33,0,0,1-2.3-1.93Zm-.2,19.36L5.7,45.51A5.27,5.27,0,0,0,8,46.07H30.66l-.48,17.35H9.32A3.77,3.77,0,0,1,5.55,59.66Zm113.92,62a4.42,4.42,0,0,1-4.42,4.42H14.85a4.42,4.42,0,0,1-4.41-4.42V66.35H30.1l-.26,9.14a1.47,1.47,0,0,0,.9,1.39,1.41,1.41,0,0,0,.57.11,1.45,1.45,0,0,0,1.05-.44L41.64,67l9.51,9.59a1.46,1.46,0,0,0,2.5-1l.85-30.1,9.44-5.4,9.45,5.4.84,30.1a1.47,1.47,0,0,0,2.51,1L86.25,67l9.28,9.58A1.46,1.46,0,0,0,98,75.49l-.25-9.14h21.68Zm5-62a3.77,3.77,0,0,1-3.77,3.77h-23l-.48-17.35H122.1a5.19,5.19,0,0,0,2.35-.56ZM122.1,43.14H96.45l-7.56-5.63a48.06,48.06,0,0,0,13.25-2.88,5.33,5.33,0,0,0,3.12-3.46c.31-1.08.57-2.19.79-3.31h11.81A2.37,2.37,0,0,1,120,29.34l4.23,10.58a2.26,2.26,0,0,1,.18.87A2.36,2.36,0,0,1,122.1,43.14Z"></path><path fill="#fff" d="M116.19 51.22h-2a1.47 1.47 0 1 1 0-2.93h2a1.47 1.47 0 1 1 0 2.93zM109.9 51.22h-6.3a1.47 1.47 0 0 1 0-2.93h6.3a1.47 1.47 0 0 1 0 2.93zM60 28.65a1.47 1.47 0 0 1-1.47-1.47V24.31a4.93 4.93 0 0 1 4.93-4.92h2.75a1.47 1.47 0 1 1 0 2.93H63.44a2 2 0 0 0-2 2v2.87A1.46 1.46 0 0 1 60 28.65zM36.87 60.83h0a1.46 1.46 0 0 1-1.42-1.51l0-1.12A1.44 1.44 0 0 1 37 56.79a1.46 1.46 0 0 1 1.42 1.51l0 1.11A1.48 1.48 0 0 1 36.87 60.83zM37 55.48h0A1.48 1.48 0 0 1 35.57 54l.13-4.14a3.11 3.11 0 0 1 3.11-3h7.8a1.47 1.47 0 0 1 0 2.94h-7.8a.18.18 0 0 0-.18.16l-.12 4.14A1.48 1.48 0 0 1 37 55.48z"></path></svg>